<!DOCTYPE svg PUBLIC "-//W3C//DTD SVG 1.1//EN" "http://www.w3.org/Graphics/SVG/1.1/DTD/svg11.dtd">
<!-- Uploaded to: SVG Repo, www.svgrepo.com, Transformed by: SVG Repo Mixer Tools -->
<svg fill="#ffffff" version="1.1" id="Capa_1" xmlns="http://www.w3.org/2000/svg" xmlns:xlink="http://www.w3.org/1999/xlink" width="70px" height="70px" viewBox="0 0 475.262 475.261" xml:space="preserve" stroke="#ffffff">
<g id="SVGRepo_bgCarrier" stroke-width="0"/>
<g id="SVGRepo_tracerCarrier" stroke-linecap="round" stroke-linejoin="round"/>
<g id="SVGRepo_iconCarrier"> <g> <path d="M272.366,274.18c-11.247,0-20.353,9.105-20.353,20.345c0,5.965,2.583,11.316,6.673,15.037 c-3.559,3.523-5.775,8.41-5.775,13.805c0,10.729,8.728,19.454,19.455,19.454c10.717,0,19.447-8.726,19.447-19.454 c0-5.395-2.213-10.281-5.775-13.805c4.09-3.721,6.671-9.067,6.671-15.037C292.709,283.286,283.593,274.18,272.366,274.18z M287.598,323.367c0,8.408-6.827,15.24-15.231,15.24c-8.407,0-15.253-6.832-15.253-15.24c0-4.465,1.956-8.476,5.019-11.271 c3.009,1.756,6.5,2.78,10.234,2.78c3.727,0,7.215-1.024,10.222-2.78C285.655,314.891,287.598,318.897,287.598,323.367z M343.227,21.776C343.227,9.751,333.476,0,321.448,0H153.811c-12.025,0-21.775,9.751-21.775,21.776v233.69h211.191V21.776z M206.062,177.077h-37.017v-37.01h37.013v37.01H206.062z M206.062,122.646h-37.017V85.631h37.013v37.015H206.062z M206.062,68.944 h-37.017v-37.01h37.013v37.01H206.062z M255.045,226.431h-37.01v-37.01h37.01V226.431z M255.045,177.077h-37.01v-37.01h37.01 V177.077z M255.045,122.646h-37.01V85.631h37.01V122.646z M255.045,68.944h-37.01v-37.01h37.01V68.944z M301.857,177.077h-37.012 v-37.01h37.012V177.077z M301.857,122.646h-37.012V85.631h37.012V122.646z M301.857,68.944h-37.012v-37.01h37.012V68.944z M131.494,259.274v43.36h18.976l-0.01-13.067h-5.905v-17.236h9.587v192.406c0,5.811,4.707,10.524,10.517,10.524h145.934 c5.817,0,10.521-4.714,10.521-10.524V272.341h9.594v17.226h-4.312l-0.02,13.067h17.393v-43.36H131.494z M225.001,304.068h-41.392 c-2.326,0-4.209-1.872-4.209-4.202v-28.908h49.814v28.908C229.21,302.196,227.321,304.068,225.001,304.068z M282.882,460.359 h-16.305v-84.191h16.305V460.359z M296.035,460.359h-6.84v-71.037h6.84V460.359z M293.41,356.698h-42.102 c-2.33,0-4.207-1.882-4.207-4.214v-81.526h50.521v81.521C297.623,354.816,295.731,356.698,293.41,356.698z"/> </g> </g>
</svg>